{
    "asset": {
        "generator": "SOLIDWORKSGLTF",
        "version": "2.0"
    },
    "scene": 0,
    "scenes": [
        {
            "name": "Default",
            "nodes": [
                0,
                1
            ]
        }
    ],
    "nodes": [
        {
            "matrix": [
                -0.3654406975520354,
                0.048860600496515624,
                -0.9295513639879196,
                0.0,
                0.8935043034138797,
                0.29838341130275203,
                -0.3355851600416956,
                0.0,
                0.26096581453048506,
                -0.9531946189411964,
                -0.15269859877545666,
                0.0,
                0.09091146374352446,
                -0.3293997247789864,
                -0.0627885302260773,
                1.0
            ],
            "camera": 0,
            "name": "current camera"
        },
        {
            "mesh": 0,
            "name": "codo"
        }
    ],
    "cameras": [
        {
            "type": "orthographic",
            "orthographic": {
                "xmag": 0.06724648181120796,
                "ymag": 0.05196319049047887,
                "zfar": 0.4796163927764966,
                "znear": 0.2885712123695228
            }
        }
    ],
    "meshes": [
        {
            "primitives": [
                {
                    "attributes": {
                        "POSITION": 1,
                        "NORMAL": 2
                    },
                    "indices": 0,
                    "material": 0,
                    "mode": 4
                }
            ]
        }
    ],
    "accessors": [
        {
            "bufferView": 0,
            "byteOffset": 0,
            "componentType": 5125,
            "count": 18849,
            "type": "SCALAR",
            "min": [
                0
            ],
            "max": [
                8434
            ]
        },
        {
            "bufferView": 1,
            "byteOffset": 0,
            "componentType": 5126,
            "count": 8435,
            "type": "VEC3",
            "min": [
                -0.017999999225139618,
                -0.020999999716877937,
                -0.04650000110268593
            ],
            "max": [
                0.017999999225139618,
                0.020999999716877937,
                0.02850000001490116
            ]
        },
        {
            "bufferView": 2,
            "byteOffset": 0,
            "componentType": 5126,
            "count": 8435,
            "type": "VEC3",
            "min": [
                -1.0,
                -1.0,
                -1.0
            ],
            "max": [
                1.0,
                1.0,
                1.0
            ]
        }
    ],
    "materials": [
        {
            "name": "defaultplastic",
            "pbrMetallicRoughness": {
                "baseColorFactor": [
                    0.5989418101001601,
                    0.6455552910764322,
                    0.8591735777059335,
                    1.0
                ],
                "metallicFactor": 0.0,
                "roughnessFactor": 0.16999999880790712
            }
        }
    ],
    "bufferViews": [
        {
            "buffer": 0,
            "byteOffset": 0,
            "byteLength": 75396,
            "target": 34963
        },
        {
            "buffer": 0,
            "byteOffset": 75396,
            "byteLength": 101220,
            "byteStride": 12,
            "target": 34962
        },
        {
            "buffer": 0,
            "byteOffset": 176616,
            "byteLength": 101220,
            "byteStride": 12,
            "target": 34962
        }
    ],
    "buffers": [
        {
            "uri": "codo.bin",
            "byteLength": 277836
        }
    ]
}
